<svg xmlns="http://www.w3.org/2000/svg" viewBox="0 0 1440 320"><path fill="#0099ff" fill-opacity="1" d="M0,96L21.8,106.7C43.6,117,87,139,131,138.7C174.5,139,218,117,262,101.3C305.5,85,349,75,393,64C436.4,53,480,43,524,64C567.3,85,611,139,655,165.3C698.2,192,742,192,785,186.7C829.1,181,873,171,916,176C960,181,1004,203,1047,224C1090.9,245,1135,267,1178,256C1221.8,245,1265,203,1309,186.7C1352.7,171,1396,181,1418,186.7L1440,192L1440,0L1418.2,0C1396.4,0,1353,0,1309,0C1265.5,0,1222,0,1178,0C1134.5,0,1091,0,1047,0C1003.6,0,960,0,916,0C872.7,0,829,0,785,0C741.8,0,698,0,655,0C610.9,0,567,0,524,0C480,0,436,0,393,0C349.1,0,305,0,262,0C218.2,0,175,0,131,0C87.3,0,44,0,22,0L0,0Z"></path></svg>